<svg xmlns="http://www.w3.org/2000/svg" id="a" viewBox="0 0 250 231.2"><g><path d="M191.37,201.43h-24.54c-2.6,0-4.41-1.17-5.33-3.25-.65-1.56-.65-3.25-.65-4.55v-.78c-2.99-1.56-9.87-6.23-9.87-17.01,0-4.94-1.3-13.64-4.15-17.66-3.51-4.8-.91-7.53,0-8.31,2.6-2.21,7.4-2.08,9.74,.39,.78,.78,1.56,1.95,2.34,3.25v-22.85c0-2.21,.91-4.41,2.34-5.98,1.3-1.3,2.86-1.95,4.41-1.95,4.15,0,6.88,4.03,6.88,7.92v12.6c.91-.52,1.82-.78,2.86-.78,3.11,0,5.45,2.34,6.49,5.06,.91-.65,2.08-1.04,3.38-1.04,3.76,0,6.49,3.38,7.01,6.75,.91-.52,1.82-.78,2.99-.78,4.15,0,7.01,4.15,7.01,7.92v17.27c0,9.09,0,9.61-3.51,14.15l-.52,.65v1.3c0,2.09-.13,7.67-6.88,7.67h0Zm-39.87-49.08c-.78,0-1.56,.26-2.08,.65-.78,.65-.13,2.08,.65,2.99,3.64,4.94,4.94,14.93,4.94,20,0,10.52,8.18,13.77,8.57,13.89,.78,.26,1.3,1.04,1.3,1.82v1.95c0,1.04,0,2.21,.39,2.99,.13,.52,.52,.91,1.69,.91h24.54c2.6,0,2.86-1.04,2.99-3.76v-2.08c0-.39,.13-.78,.39-1.17l.91-1.17q2.73-3.51,2.6-11.82v-17.27c0-1.56-1.3-3.9-2.99-3.9s-2.86,2.34-2.86,3.9c0,1.04-.91,1.95-1.95,1.95s-1.95-.91-1.95-1.95v-5.84c0-1.56-1.3-3.9-3.11-3.9-1.43,0-2.86,2.21-2.86,3.9,0,1.04-.91,1.95-1.95,1.95s-1.95-.91-1.95-1.95v-3.9c0-1.56-1.3-3.9-2.99-3.9-1.56,0-2.86,2.21-2.86,3.9,0,1.04-.91,1.95-1.95,1.95s-1.95-.91-1.95-1.95v-19.74c0-1.82-1.3-3.9-2.99-3.9-.65,0-1.17,.26-1.69,.78-.78,.78-1.3,1.95-1.3,3.11v35.45c0,1.04-.78,1.95-1.82,1.95-.78,0-1.82-.26-2.08-1.95-2.08-9.35-4.15-12.21-5.06-12.99-.78-.65-1.69-.91-2.6-.91h0Z" style="fill:#cd7329;"></path><path d="M165.92,96.51c-1.43,0-2.6,1.17-2.6,2.6v15.45c0,1.43,1.17,2.6,2.6,2.6s2.6-1.17,2.6-2.6v-15.58c-.13-1.3-1.17-2.47-2.6-2.47h0Z" style="fill:#cd7329;"></path><path d="M153.19,118.58l-10.91-10.91c-1.04-1.04-2.6-1.04-3.64,0s-1.04,2.6,0,3.64l10.91,10.91c.52,.52,1.17,.78,1.82,.78s1.3-.26,1.82-.78c1.04-.91,1.04-2.6,0-3.64h0Z" style="fill:#cd7329;"></path><path d="M193.06,107.67c-1.04-1.04-2.6-1.04-3.64,0l-10.91,10.91c-1.04,1.04-1.04,2.6,0,3.64,.52,.52,1.17,.78,1.82,.78s1.3-.26,1.82-.78l10.91-10.91c1.04-.91,1.04-2.6,0-3.64h0Z" style="fill:#cd7329;"></path></g><path d="M56.04,155.26v-.47c-2.13,0-3.56-1.66-3.56-3.81V55.92h38.5v25.2c0,.71,.47,1.43,.95,1.9,.71,.47,1.43,.47,2.14,.24l22.59-8.8,22.34,8.79c.24,0,.47,.24,.95,.24s.95-.24,1.43-.47c.71-.47,.95-1.19,.95-1.9v-25.2h38.51v38.99c0,1.12,.91,2.03,2.03,2.03h.69c1.12,0,2.03-.91,2.03-2.03V55.68c0-1.19-.24-2.14-.47-3.09-.47-.95-.95-1.66-1.43-2.38l-14.98-17.58c-1.66-1.9-4.04-2.85-6.42-2.85H71.02c-2.38,0-4.75,1.18-6.42,3.08l-14.98,17.58c-.71,.71-1.19,1.43-1.43,2.38-.47,.95-.47,2.14-.47,3.09v95.31c0,4.75,3.81,8.56,8.32,8.56h75.49c1.25,0,2.26-1.01,2.26-2.26h0c0-1.25-1.01-2.26-2.26-2.26H56.04Zm81.53-77.72l-19.96-7.85c-.24,0-.47-.24-.95-.24s-.47,0-.95,.24l-19.96,7.85-.02-21.63h41.84v21.63Zm24.71-43.26c.96,.23,2.14,.71,2.85,1.42h0l13.07,15.21h-36.84l-7.85-16.63h28.76Zm-33.99,.23l7.85,16.64h-38.97l7.85-16.64h23.28Zm-60.12,1.19c.71-.71,1.66-1.19,2.85-1.19h28.76l-7.85,16.64H55.33l12.84-15.45Z" style="fill:#cd7329;"></path></svg>