<svg xmlns="http://www.w3.org/2000/svg" id="a" viewBox="0 0 250 231.2"><path d="M54.65,30.83c-1.01,.19-1.74,1.08-1.72,2.12v23.91s-.05,.09-.07,.13l-.6,2.32-11.46,11.39c-.4,.41-.61,.96-.6,1.52v115.43c0,1.17,.95,2.12,2.12,2.12h51.98l5.5,9.54c.28,.5,.74,.86,1.29,1.01,.55,.15,1.13,.07,1.62-.22l17.81-10.33h21.39c1.17,0,2.12-.95,2.12-2.12v-6.56l65.1-65.03c.41-.4,.65-.95,.65-1.52s-.23-1.13-.65-1.52L127.49,31.43c-.39-.38-.91-.59-1.46-.6H55.05c-.13-.02-.26-.02-.4,0h0Zm2.52,4.24H125.17l79.4,79.47-67.94,67.94L57.17,103.01V35.07Zm67.54,27.48c-1.09,.14-1.9,1.08-1.85,2.19v67.81c0,.57,.22,1.12,.61,1.51,.4,.41,.94,.64,1.51,.64s1.11-.23,1.51-.64c.4-.4,.62-.94,.61-1.51V64.74c.02-.62-.22-1.23-.69-1.65-.46-.42-1.08-.61-1.7-.54h0Zm-74.7,4.97l-5.56,20.86v-15.23l5.56-5.63Zm2.91,5.56v30.79c-.02,.56,.2,1.12,.6,1.52l74.96,74.9-26.02,15.03L46.24,97.98l6.69-24.9Zm40.26,6.49c-6.99,0-12.71,5.72-12.71,12.71s5.72,12.71,12.71,12.71,12.71-5.72,12.71-12.71-5.72-12.71-12.71-12.71Zm0,4.24c4.71,0,8.48,3.77,8.48,8.48s-3.77,8.48-8.48,8.48-8.48-3.77-8.48-8.48,3.77-8.48,8.48-8.48Zm63.57,8.48c-6.99,0-12.71,5.72-12.71,12.71s5.72,12.71,12.71,12.71,12.71-5.72,12.71-12.71-5.72-12.71-12.71-12.71Zm0,4.24c4.71,0,8.48,3.77,8.48,8.48s-3.77,8.48-8.48,8.48-8.48-3.77-8.48-8.48,3.77-8.48,8.48-8.48Zm-112.31,6.89l47.41,82.12H44.45V103.41Zm87.15,80l2.12,2.12h-5.83l3.71-2.12Zm8.21,1.92v.2h-.2l.2-.2Z" style="fill:#cd7329;"></path></svg>