<svg xmlns="http://www.w3.org/2000/svg" xmlns:xlink="http://www.w3.org/1999/xlink" id="Group_2198" data-name="Group 2198" width="386.701" height="294.561" viewBox="0 0 386.701 294.561"><defs><clipPath id="clip-path"><rect id="Rectangle_2" data-name="Rectangle 2" width="386.701" height="294.56" fill="none"></rect></clipPath></defs><rect id="Rectangle_1" data-name="Rectangle 1" width="46.3" height="3.857" transform="translate(169.396 183.997)" fill="#cd7428"></rect><path id="Path_4" data-name="Path 4" d="M269.648,121.224l14.385,35.258H269.648Zm-12.186-1.24v36.5H242.53Zm-45.524,7.544,43.388-11.71L239.5,154.488Zm59.341-11.713,43.807,11.824-27.752,27.533ZM210.534,42l44.973,70.083-44.973,12.138Zm60.572,70.087,45.471-70.86v83.128Zm-1.459-79.647L315.2,36.792l-45.555,70.985Zm-58.239,4.349,46.053-4.4v76.162ZM239.771,5.439l15.462,23.6-41.849,4Zm31.607,23.6L287.215,4.863l26.612,28.228ZM242.785,3.559h14.677v22.4Zm18.231,0h5.076V156.478h-5.076Zm8.631,0h14.177L269.647,25.2ZM240.816,0l-1.285.547L207.472,34.071,206.98,35.3v.683l-.133.276.133.206V126.9l.536,1.271,32.052,31.357,1.245.506h45.937l1.25-.516,31.606-31.354.526-1.264V35.3l-.488-1.221L288.044.56,286.753,0Z" transform="translate(-70.571 0)" fill="#cd7428"></path><g id="Group_3" data-name="Group 3"><g id="Group_2" data-name="Group 2" clip-path="url(#clip-path)"><path id="Path_5" data-name="Path 5" d="M21.463,369.041V341.156H16.822v16.408L0,340.745V368.42H4.641v-16.2Zm40.19-.373a13.36,13.36,0,0,0,6.9-1.864,13.917,13.917,0,0,0,5.034-5.055,13.915,13.915,0,0,0,0-13.916,13.923,13.923,0,0,0-5.034-5.055,13.695,13.695,0,0,0-13.8,0,13.913,13.913,0,0,0-5.034,5.055,13.915,13.915,0,0,0,0,13.916,13.912,13.912,0,0,0,5.034,5.055,13.361,13.361,0,0,0,6.9,1.864m0-23.12a8.8,8.8,0,0,1,4.579,1.243,9.194,9.194,0,0,1,3.315,3.356,9.3,9.3,0,0,1-3.315,12.638,9.052,9.052,0,0,1-9.157,0,9.311,9.311,0,0,1,0-15.994,8.8,8.8,0,0,1,4.578-1.243m55.438,8.287a9.21,9.21,0,0,1,3.253,2.942,6.779,6.779,0,0,1,1.181,3.812,6.693,6.693,0,0,1-.85,3.253,8.334,8.334,0,0,1-2.424,2.714,10.746,10.746,0,0,1-3.211,1.6,12.854,12.854,0,0,1-7.505,0,10.757,10.757,0,0,1-3.21-1.6,7.485,7.485,0,0,1-2.736-3.481l4.143-2.361a2.152,2.152,0,0,0,.456,1.2,3.847,3.847,0,0,0,.911.87,6.728,6.728,0,0,0,1.927.912,7.86,7.86,0,0,0,4.516,0,6.72,6.72,0,0,0,1.927-.912,2.847,2.847,0,0,0,1.368-2.2,2.362,2.362,0,0,0-.539-1.45,4.5,4.5,0,0,0-1.443-1.2,12.656,12.656,0,0,0-3.894-.87,16.713,16.713,0,0,1-5.138-1.2,8.211,8.211,0,0,1-3.48-2.9,7.111,7.111,0,0,1-1.246-4.019,6.692,6.692,0,0,1,.85-3.253,8.527,8.527,0,0,1,2.383-2.714,10.743,10.743,0,0,1,3.21-1.6,12.868,12.868,0,0,1,7.505,0,10.747,10.747,0,0,1,3.211,1.6,7.73,7.73,0,0,1,2.776,3.522l-4.185,2.4a2.894,2.894,0,0,0-1.368-2.155,6.717,6.717,0,0,0-1.927-.911,7.859,7.859,0,0,0-4.516,0,6.733,6.733,0,0,0-1.927.911,2.849,2.849,0,0,0-1.367,2.2,2.558,2.558,0,0,0,.58,1.553,3.68,3.68,0,0,0,1.616,1.181,7.123,7.123,0,0,0,1.575.456q.911.166,2.111.331a17.256,17.256,0,0,1,5.469,1.368m49.845-12.679v4.682h-8.2V368.42h-4.641V345.838H145.93v-4.682ZM194.7,364.691l-1.743,3.729h-5.135l12.64-27.264,12.014,27.264h-5.1l-1.657-3.729Zm5.635-12.219-3.481,7.537h6.8Zm55.355,15.948v-4.641H243.134V341.156h-4.681V368.42Zm47.028-15.04H291.569v4.643h6.505v5.759h-5.593a8.726,8.726,0,0,1-4.516-1.225,9.129,9.129,0,0,1-3.294-3.315,9.186,9.186,0,0,1,0-9.156,9.128,9.128,0,0,1,3.294-3.315,8.733,8.733,0,0,1,4.516-1.221,9.057,9.057,0,0,1,3.6.746,8.667,8.667,0,0,1,3.025,2.154l3.44-3.108a12.935,12.935,0,0,0-4.557-3.315,13.6,13.6,0,0,0-5.511-1.16,13.146,13.146,0,0,0-6.857,1.865,13.9,13.9,0,0,0-4.972,5.035,13.816,13.816,0,0,0,0,13.793,13.739,13.739,0,0,0,4.972,5.014,13.26,13.26,0,0,0,6.858,1.847h10.234Zm32.9-12.223h-4.682V368.42h4.682Zm33.313,23.535-1.741,3.729h-5.135l12.638-27.264L386.7,368.42h-5.1l-1.658-3.729Zm5.632-12.219-3.481,7.541h6.8ZM111.225,410.814a9.821,9.821,0,0,0,7.694-3.717l-2.615-2.079a6.821,6.821,0,0,1-2.272,1.812,6.349,6.349,0,0,1-6.075-.253,6.635,6.635,0,0,1-2.392-2.436,6.682,6.682,0,0,1,2.38-9.045,6.307,6.307,0,0,1,3.284-.891,6.378,6.378,0,0,1,2.629.565,6.648,6.648,0,0,1,2.21,1.606l2.465-2.228a9.518,9.518,0,0,0-3.312-2.423,9.79,9.79,0,0,0-4-.847,9.584,9.584,0,0,0-4.946,1.337,10.029,10.029,0,0,0-3.6,13.606,9.971,9.971,0,0,0,3.6,3.639,9.5,9.5,0,0,0,4.946,1.355m35.414,0a9.582,9.582,0,0,0,4.946-1.337,9.974,9.974,0,0,0,3.61-3.624,9.984,9.984,0,0,0,0-9.981,9.974,9.974,0,0,0-3.61-3.624,9.815,9.815,0,0,0-9.892,0,9.969,9.969,0,0,0-3.61,3.624,9.984,9.984,0,0,0,0,9.983,9.977,9.977,0,0,0,3.609,3.624,9.59,9.59,0,0,0,4.945,1.335Zm0-16.574a6.314,6.314,0,0,1,3.284.891,6.666,6.666,0,0,1,0,11.466,6.492,6.492,0,0,1-6.567,0,6.68,6.68,0,0,1,0-11.47,6.311,6.311,0,0,1,3.283-.89Zm31.992,16.4v-8.11h6.8v-3.357h-6.8v-4.724h9v-3.353H175.3v19.544Zm31.638,0v-8.11h6.8v-3.357h-6.8v-4.724h9v-3.353H206.942v19.544Zm40.669,0v-3.327h-9v-4.783h6.773v-3.357h-6.773v-4.724h9v-3.353H238.58v19.544Zm31.757,0v-3.327h-9v-4.783h6.773v-3.357h-6.773v-4.724h9v-3.353H270.337v19.544Z" transform="translate(0 -116.253)" fill="#cd7428"></path></g></g></svg>