<svg xmlns="http://www.w3.org/2000/svg" xmlns:xlink="http://www.w3.org/1999/xlink" id="Layer_1" x="0px" y="0px" viewBox="0 0 238 55" style="enable-background:new 0 0 238 55;" xml:space="preserve"><style type="text/css">	.st0{enable-background:new    ;}	.st1{fill:#D17329;}</style><g class="st0">	<path class="st1" d="M5.2,15.2V25H2.4V8.3l10.1,10.2V8.5h2.8v16.8L5.2,15.2z"></path>	<path class="st1" d="M39.6,25.2c-1.5,0-2.9-0.4-4.2-1.1s-2.3-1.8-3-3.1c-0.8-1.3-1.1-2.7-1.1-4.2s0.4-2.9,1.1-4.2s1.8-2.3,3-3  s2.7-1.1,4.2-1.1s2.9,0.4,4.2,1.1c1.3,0.8,2.3,1.8,3,3s1.1,2.7,1.1,4.2s-0.4,2.9-1.1,4.2c-0.8,1.3-1.8,2.3-3,3.1  C42.5,24.8,41.1,25.2,39.6,25.2z M39.6,11.2c-1,0-1.9,0.2-2.8,0.8c-0.8,0.5-1.5,1.2-2,2c-0.5,0.9-0.7,1.8-0.7,2.8s0.2,1.9,0.7,2.8  c0.5,0.9,1.2,1.5,2,2c0.8,0.5,1.8,0.8,2.8,0.8s1.9-0.2,2.8-0.8c0.8-0.5,1.5-1.2,2-2c0.5-0.9,0.7-1.8,0.7-2.8s-0.2-2-0.7-2.8  c-0.5-0.8-1.2-1.5-2-2C41.5,11.5,40.6,11.2,39.6,11.2z"></path>	<path class="st1" d="M75,18c0.5,0.7,0.7,1.5,0.7,2.3c0,0.7-0.2,1.3-0.5,2c-0.3,0.6-0.8,1.2-1.5,1.6c-0.6,0.4-1.2,0.7-1.9,1  c-0.7,0.2-1.5,0.3-2.3,0.3c-0.8,0-1.5-0.1-2.3-0.3c-0.7-0.2-1.4-0.5-1.9-1c-0.8-0.6-1.4-1.3-1.7-2.1l2.5-1.4c0,0.3,0.1,0.5,0.3,0.7  c0.2,0.2,0.3,0.4,0.5,0.5c0.3,0.2,0.7,0.4,1.2,0.6c0.4,0.1,0.9,0.2,1.4,0.2c0.5,0,0.9-0.1,1.4-0.2c0.4-0.1,0.8-0.3,1.2-0.6  c0.6-0.4,0.8-0.9,0.8-1.3c0-0.3-0.1-0.6-0.3-0.9s-0.5-0.5-0.9-0.7c-0.3-0.2-1.1-0.4-2.3-0.5C68,18,67,17.8,66.3,17.4  c-0.9-0.4-1.6-1-2.1-1.8s-0.8-1.6-0.8-2.4c0-0.7,0.2-1.3,0.5-2c0.3-0.6,0.8-1.2,1.4-1.6c0.6-0.4,1.2-0.7,1.9-1  c0.7-0.2,1.5-0.3,2.3-0.3c0.8,0,1.5,0.1,2.3,0.3s1.4,0.5,1.9,1c0.8,0.6,1.4,1.3,1.7,2.1l-2.5,1.4c0-0.5-0.3-0.9-0.8-1.3  c-0.3-0.2-0.7-0.4-1.2-0.5c-0.4-0.1-0.9-0.2-1.4-0.2c-0.5,0-0.9,0.1-1.4,0.2c-0.4,0.1-0.8,0.3-1.2,0.5c-0.5,0.4-0.8,0.9-0.8,1.3  c0,0.3,0.1,0.6,0.4,0.9s0.6,0.5,1,0.7c0.3,0.1,0.6,0.2,1,0.3c0.4,0.1,0.8,0.1,1.3,0.2c1.5,0.2,2.6,0.5,3.3,0.8  C73.9,16.7,74.5,17.3,75,18z"></path>	<path class="st1" d="M103.1,8.5v2.8h-4.9V25h-2.8V11.4h-4.9V8.5H103.1z"></path>	<path class="st1" d="M119.9,22.8l-1,2.2h-3.1l7.6-16.5l7.2,16.5h-3.1l-1-2.2H119.9z M123.3,15.4l-2.1,4.5h4.1L123.3,15.4z"></path>	<path class="st1" d="M146.3,25V8.5h2.8v13.7h7.6V25H146.3z"></path>	<path class="st1" d="M185.1,25h-6.2c-1.5,0-2.9-0.4-4.1-1.1c-1.3-0.7-2.3-1.8-3-3c-0.7-1.3-1.1-2.7-1.1-4.2s0.4-2.9,1.1-4.2  c0.7-1.3,1.7-2.3,3-3c1.3-0.8,2.6-1.1,4.1-1.1c1.1,0,2.3,0.2,3.3,0.7c1.1,0.5,2,1.1,2.8,2l-2.1,1.9c-0.5-0.6-1.1-1-1.8-1.3  c-0.7-0.3-1.4-0.5-2.2-0.5c-1,0-1.9,0.2-2.7,0.7c-0.8,0.5-1.5,1.2-2,2s-0.7,1.8-0.7,2.8s0.2,1.9,0.7,2.8s1.2,1.5,2,2  c0.8,0.5,1.7,0.7,2.7,0.7h3.4v-3.5h-3.9v-2.8h6.7V25z"></path>	<path class="st1" d="M202.1,25V8.5h2.8V25H202.1z"></path>	<path class="st1" d="M225,22.8l-1,2.2h-3.1l7.6-16.5l7.2,16.5h-3.1l-1-2.2H225z M228.4,15.4l-2.1,4.5h4.1L228.4,15.4z"></path></g><g class="st0">	<path class="st1" d="M67.4,51.1c-1.1,0-2.2-0.3-3.2-0.9c-1-0.6-1.7-1.4-2.3-2.3c-0.6-1-0.8-2-0.8-3.2c0-1.2,0.3-2.2,0.8-3.2  c0.6-1,1.3-1.7,2.3-2.3c1-0.6,2-0.9,3.2-0.9c0.9,0,1.7,0.2,2.6,0.5c0.8,0.4,1.5,0.9,2.1,1.5l-1.6,1.4c-0.4-0.4-0.9-0.8-1.4-1  c-0.5-0.2-1.1-0.4-1.7-0.4c-0.8,0-1.5,0.2-2.1,0.6c-0.6,0.4-1.1,0.9-1.5,1.5s-0.6,1.4-0.6,2.1c0,0.8,0.2,1.5,0.6,2.1  s0.9,1.2,1.5,1.6c0.6,0.4,1.3,0.6,2.1,0.6c0.6,0,1.2-0.1,1.8-0.4c0.6-0.3,1-0.7,1.5-1.2l1.7,1.3c-0.6,0.7-1.3,1.3-2.2,1.7  S68.3,51.1,67.4,51.1z"></path>	<path class="st1" d="M90,51.1c-1.1,0-2.2-0.3-3.2-0.9c-1-0.6-1.7-1.3-2.3-2.3s-0.9-2-0.9-3.2s0.3-2.2,0.9-3.2  c0.6-1,1.3-1.7,2.3-2.3c1-0.6,2-0.9,3.2-0.9c1.1,0,2.2,0.3,3.2,0.9c1,0.6,1.7,1.3,2.3,2.3c0.6,1,0.9,2,0.9,3.2s-0.3,2.2-0.9,3.2  c-0.6,1-1.3,1.7-2.3,2.3C92.2,50.8,91.2,51.1,90,51.1z M90,40.5c-0.8,0-1.5,0.2-2.1,0.6s-1.1,0.9-1.5,1.5s-0.6,1.4-0.6,2.1  s0.2,1.5,0.6,2.1c0.4,0.7,0.9,1.2,1.5,1.5S89.3,49,90,49c0.8,0,1.5-0.2,2.1-0.6c0.6-0.4,1.1-0.9,1.5-1.5c0.4-0.6,0.6-1.4,0.6-2.1  s-0.2-1.5-0.6-2.1c-0.4-0.6-0.9-1.2-1.5-1.5C91.5,40.7,90.8,40.5,90,40.5z"></path>	<path class="st1" d="M108.4,51V38.5h7.9v2.1h-5.8v3h4.4v2.1h-4.4V51H108.4z"></path>	<path class="st1" d="M128.6,51V38.5h7.9v2.1h-5.8v3h4.4v2.1h-4.4V51H128.6z"></path>	<path class="st1" d="M148.8,51V38.5h7.9v2.1H151v3h4.3v2.1H151v3.1h5.8V51H148.8z"></path>	<path class="st1" d="M169.2,51V38.5h7.9v2.1h-5.8v3h4.3v2.1h-4.3v3.1h5.8V51H169.2z"></path></g></svg>